{
  "accessors": [
    {
      "bufferView": 2,
      "componentType": 5126,
      "count": 6629,
      "max": [
        27.435018539428711,
        29.612602233886719,
        19.558757781982422
      ],
      "min": [
        -27.435018539428711,
        -26.729801177978516,
        -14.511429786682129
      ],
      "type": "VEC3"
    },
    {
      "bufferView": 2,
      "byteOffset": 79548,
      "componentType": 5126,
      "count": 6629,
      "max": [
        0.99995589256286621,
        0.99958288669586182,
        0.99999791383743286
      ],
      "min": [
        -0.99995589256286621,
        -0.99998056888580322,
        -0.99988424777984619
      ],
      "type": "VEC3"
    },
    {
      "bufferView": 1,
      "componentType": 5126,
      "count": 6629,
      "max": [
        0.98772060871124268,
        0.98237109184265137
      ],
      "min": [
        0.007204368244856596,
        0.0094747543334960938
      ],
      "type": "VEC2"
    },
    {
      "bufferView": 0,
      "componentType": 5125,
      "count": 37812,
      "max": [
        6628
      ],
      "min": [
        0
      ],
      "type": "SCALAR"
    }
  ],
  "asset": {
    "extras": {
      "author": "lukebgamer10 (https://sketchfab.com/lukebgamer10)",
      "license": "CC-BY-4.0 (http://creativecommons.org/licenses/by/4.0/)",
      "source": "https://sketchfab.com/3d-models/sonic-xtreme-sonic-645c5ff1c5344dba9411aea3c841adf9",
      "title": "Sonic Xtreme Sonic"
    },
    "generator": "Sketchfab-8.15.0",
    "version": "2.0"
  },
  "bufferViews": [
    {
      "buffer": 0,
      "byteLength": 151248,
      "byteOffset": 0,
      "name": "floatBufferViews",
      "target": 34963
    },
    {
      "buffer": 0,
      "byteLength": 53032,
      "byteOffset": 151248,
      "byteStride": 8,
      "name": "floatBufferViews",
      "target": 34962
    },
    {
      "buffer": 0,
      "byteLength": 159096,
      "byteOffset": 204280,
      "byteStride": 12,
      "name": "floatBufferViews",
      "target": 34962
    }
  ],
  "buffers": [
    {
      "byteLength": 363376,
      "uri": "scene.bin"
    }
  ],
  "extensionsUsed": [
    "KHR_materials_unlit"
  ],
  "images": [
    {
      "uri": "textures/Material_3_baseColor.png"
    }
  ],
  "materials": [
    {
      "doubleSided": false,
      "extensions": {
        "KHR_materials_unlit": {}
      },
      "name": "Material_3",
      "pbrMetallicRoughness": {
        "baseColorFactor": [
          1,
          1,
          1,
          1
        ],
        "baseColorTexture": {
          "index": 0,
          "texCoord": 0
        },
        "metallicFactor": 0,
        "roughnessFactor": 1
      }
    }
  ],
  "meshes": [
    {
      "name": "Sonic_Material #3_0",
      "primitives": [
        {
          "attributes": {
            "NORMAL": 1,
            "POSITION": 0,
            "TEXCOORD_0": 2
          },
          "indices": 3,
          "material": 0,
          "mode": 4
        }
      ]
    }
  ],
  "nodes": [
    {
      "children": [
        1
      ],
      "name": "RootNode (gltf orientation matrix)",
      "rotation": [
        -0.70710678118654746,
        -0,
        -0,
        0.70710678118654757
      ]
    },
    {
      "children": [
        2
      ],
      "name": "RootNode (model correction matrix)"
    },
    {
      "children": [
        3
      ],
      "matrix": [
        1,
        0,
        0,
        0,
        0,
        0,
        1,
        0,
        0,
        -1,
        0,
        0,
        0,
        0,
        0,
        1
      ],
      "name": "Sonci.fbx"
    },
    {
      "children": [
        4
      ],
      "name": "RootNode"
    },
    {
      "children": [
        5
      ],
      "matrix": [
        0.72971498966217041,
        0,
        0,
        0,
        0,
        0.72971498966216064,
        1.1888566916948098e-07,
        0,
        0,
        -1.1888566916948098e-07,
        0.72971498966216064,
        0,
        0,
        0,
        0,
        1
      ],
      "name": "Sonic"
    },
    {
      "children": [
        6
      ],
      "matrix": [
        1,
        0,
        -0,
        0,
        0,
        1,
        0,
        0,
        0,
        0,
        1,
        0,
        0,
        26.468914031982422,
        -4.9815182685852051,
        1
      ],
      "name": ""
    },
    {
      "mesh": 0,
      "name": "Sonic_Material #3_0"
    }
  ],
  "samplers": [
    {
      "magFilter": 9729,
      "minFilter": 9987,
      "wrapS": 10497,
      "wrapT": 10497
    }
  ],
  "scene": 0,
  "scenes": [
    {
      "name": "OSG_Scene",
      "nodes": [
        0
      ]
    }
  ],
  "textures": [
    {
      "sampler": 0,
      "source": 0
    }
  ]
}

